<?xml version="1.0" standalone="no"?>
<!DOCTYPE svg PUBLIC "-//W3C//DTD SVG 20010904//EN"
 "http://www.w3.org/TR/2001/REC-SVG-20010904/DTD/svg10.dtd">
<svg version="1.0" xmlns="http://www.w3.org/2000/svg"
 width="267.000000pt" height="189.000000pt" viewBox="0 0 267.000000 189.000000"
 preserveAspectRatio="xMidYMid meet">

<g transform="translate(0.000000,189.000000) scale(0.100000,-0.100000)"
fill="#000000" stroke="none">
<path d="M1235 1747 c-47 -47 -61 -106 -40 -161 21 -51 60 -94 103 -113 45
-19 36 -35 -26 -51 -48 -12 -52 -11 -87 13 -44 29 -55 25 -55 -18 0 -39 -4
-44 -56 -84 -22 -18 -52 -48 -65 -68 -22 -32 -28 -35 -77 -35 -76 0 -80 -32
-11 -105 l28 -30 -14 -69 c-19 -89 -52 -143 -118 -195 -75 -57 -150 -139 -176
-190 -93 -182 -3 -405 206 -508 74 -36 75 -37 186 -33 169 4 227 4 278 -5 42
-7 47 -5 52 15 5 21 7 21 29 6 30 -21 38 -20 38 4 0 13 7 20 20 20 22 0 27 19
9 37 -7 7 -6 12 5 16 10 4 16 1 16 -9 0 -10 7 -13 24 -8 14 3 34 -1 48 -10 27
-17 38 -13 38 16 0 13 7 18 25 18 32 0 32 14 -1 62 -26 37 -26 38 -10 79 36
88 27 231 -20 321 l-16 30 51 45 c66 58 145 177 161 243 29 122 -7 279 -83
358 -54 57 -168 102 -257 102 -23 0 -27 4 -23 19 7 27 32 30 73 9 22 -12 38
-14 44 -8 6 6 23 10 39 10 24 0 28 3 24 20 -3 13 0 20 9 20 17 0 19 19 2 25
-7 2 -32 9 -55 15 -35 9 -43 15 -43 34 0 12 -11 33 -25 46 -14 13 -36 43 -50
66 -36 61 -69 84 -122 84 -38 0 -51 -6 -78 -33z m148 -1 c14 -13 34 -41 45
-62 11 -22 32 -50 46 -63 30 -28 32 -41 11 -80 -17 -33 -78 -61 -134 -61 -58
0 -114 45 -135 108 -19 60 -20 73 -5 106 8 16 17 22 27 18 11 -4 14 -1 9 11
-9 23 29 47 74 47 24 0 45 -8 62 -24z m197 -231 c-6 -7 -5 -16 3 -24 10 -11 4
-12 -32 -6 -31 5 -42 4 -37 -4 9 -14 1 -14 -23 1 -19 11 -19 12 1 38 18 25 22
26 58 16 27 -7 36 -13 30 -21z m-181 -69 c-2 -2 -16 -6 -31 -10 -21 -5 -28 -3
-28 8 0 16 52 27 59 13 1 -5 1 -10 0 -11z m-94 -46 c-13 -6 17 -9 85 -9 114
-1 200 -18 265 -54 89 -49 143 -237 97 -340 -29 -66 -120 -184 -197 -256 -63
-58 -64 -61 -37 -61 27 0 28 -3 45 -82 20 -95 23 -238 5 -200 -27 55 -34 6
-12 -75 4 -16 1 -25 -10 -29 -22 -9 -56 23 -56 52 0 13 -4 26 -10 29 -6 4 -10
-6 -10 -24 0 -20 -8 -36 -26 -50 -38 -30 -44 -27 -44 24 0 25 -4 45 -10 45 -5
0 -10 -24 -10 -54 0 -45 -4 -58 -22 -70 -16 -11 -25 -13 -35 -4 -7 6 -13 7
-13 2 -1 -5 -17 21 -36 59 -35 69 -64 93 -38 32 20 -48 19 -95 -3 -95 -9 0
-25 7 -35 17 -15 13 -18 13 -18 2 0 -8 7 -25 16 -37 23 -33 11 -66 -32 -87
-30 -14 -57 -16 -154 -12 -105 4 -122 7 -170 33 -74 40 -141 108 -175 179 -49
98 -46 247 5 314 l18 25 -5 -30 -4 -29 31 37 c17 20 63 60 103 89 109 79 147
118 178 184 22 46 29 73 28 117 -2 63 -10 74 -70 102 -20 9 -41 28 -47 41
l-12 25 75 0 c62 0 73 2 69 15 -15 37 97 134 191 167 53 18 120 25 80 8z"/>
<path d="M1350 1715 c0 -9 5 -15 11 -13 6 2 11 8 11 13 0 5 -5 11 -11 13 -6 2
-11 -4 -11 -13z"/>
<path d="M1294 1685 c-9 -22 5 -38 22 -24 18 15 18 25 -1 33 -9 3 -18 -1 -21
-9z"/>
<path d="M1660 1274 c-9 -10 -10 -18 -2 -26 12 -12 32 -2 32 17 0 21 -16 26
-30 9z"/>
<path d="M1475 1211 c-6 -11 25 -31 49 -31 21 0 31 21 15 31 -19 12 -56 11
-64 0z"/>
<path d="M1207 1180 c-18 -14 -34 -19 -51 -14 -19 4 -26 2 -26 -8 0 -19 32
-48 52 -48 24 0 56 32 64 63 7 32 -4 34 -39 7z"/>
<path d="M987 1184 c-14 -14 -6 -24 19 -24 16 0 24 5 22 13 -5 14 -31 21 -41
11z"/>
<path d="M1627 1007 c-43 -37 -46 -47 -14 -47 25 0 117 56 117 71 0 22 -67 7
-103 -24z"/>
</g>
</svg>
